<svg width="48" height="48" viewBox="0 0 48 48" fill="none" xmlns="http://www.w3.org/2000/svg">
<path d="M9.15009 9.15003C9.71267 8.58761 10.4756 8.27167 11.2711 8.27167C12.0666 8.27167 12.8295 8.58761 13.3921 9.15003L24.0001 19.758L34.6081 9.15003C35.1739 8.60355 35.9317 8.30117 36.7183 8.308C37.5049 8.31484 38.2573 8.63035 38.8135 9.18657C39.3698 9.7428 39.6853 10.4952 39.6921 11.2818C39.6989 12.0684 39.3966 12.8262 38.8501 13.392L28.2421 24L38.8501 34.608C39.3966 35.1738 39.6989 35.9316 39.6921 36.7182C39.6853 37.5048 39.3698 38.2573 38.8135 38.8135C38.2573 39.3697 37.5049 39.6852 36.7183 39.692C35.9317 39.6989 35.1739 39.3965 34.6081 38.85L24.0001 28.242L13.3921 38.85C12.8263 39.3965 12.0685 39.6989 11.2819 39.692C10.4953 39.6852 9.74286 39.3697 9.18663 38.8135C8.63041 38.2573 8.3149 37.5048 8.30807 36.7182C8.30123 35.9316 8.60361 35.1738 9.15009 34.608L19.7581 24L9.15009 13.392C8.58767 12.8294 8.27173 12.0665 8.27173 11.271C8.27173 10.4755 8.58767 9.71261 9.15009 9.15003Z" fill="#FFEDED"/>
</svg>
