<svg width="25" height="26" viewBox="0 0 25 26" fill="none" xmlns="http://www.w3.org/2000/svg">
<path d="M21.7675 3.88455C21.2987 3.41588 20.6629 3.15259 20 3.15259C19.3371 3.15259 18.7013 3.41588 18.2325 3.88455L8.75 13.3671V16.9021H12.285L21.7675 7.41955C22.2362 6.95073 22.4995 6.31496 22.4995 5.65205C22.4995 4.98914 22.2362 4.35337 21.7675 3.88455Z" fill="white"/>
<path fill-rule="evenodd" clip-rule="evenodd" d="M2.5 8.1521C2.5 7.48906 2.76339 6.85317 3.23223 6.38433C3.70107 5.91549 4.33696 5.6521 5 5.6521H10C10.3315 5.6521 10.6495 5.7838 10.8839 6.01822C11.1183 6.25264 11.25 6.57058 11.25 6.9021C11.25 7.23362 11.1183 7.55156 10.8839 7.78598C10.6495 8.0204 10.3315 8.1521 10 8.1521H5V20.6521H17.5V15.6521C17.5 15.3206 17.6317 15.0026 17.8661 14.7682C18.1005 14.5338 18.4185 14.4021 18.75 14.4021C19.0815 14.4021 19.3995 14.5338 19.6339 14.7682C19.8683 15.0026 20 15.3206 20 15.6521V20.6521C20 21.3151 19.7366 21.951 19.2678 22.4199C18.7989 22.8887 18.163 23.1521 17.5 23.1521H5C4.33696 23.1521 3.70107 22.8887 3.23223 22.4199C2.76339 21.951 2.5 21.3151 2.5 20.6521V8.1521Z" fill="white"/>
</svg>
