<svg width="36" height="36" viewBox="0 0 36 36" fill="none" xmlns="http://www.w3.org/2000/svg">
<path d="M18 12C16.4087 12 14.8826 12.6321 13.7574 13.7574C12.6321 14.8826 12 16.4087 12 18C12 19.5913 12.6321 21.1174 13.7574 22.2426C14.8826 23.3679 16.4087 24 18 24C19.5913 24 21.1174 23.3679 22.2426 22.2426C23.3679 21.1174 24 19.5913 24 18C24 16.4087 23.3679 14.8826 22.2426 13.7574C21.1174 12.6321 19.5913 12 18 12Z" fill="#FFF9F9"/>
<path fill-rule="evenodd" clip-rule="evenodd" d="M10.8 0C7.93566 0 5.18864 1.13785 3.16325 3.16325C1.13785 5.18864 0 7.93566 0 10.8L0 25.2C0 28.0643 1.13785 30.8114 3.16325 32.8368C5.18864 34.8621 7.93566 36 10.8 36H25.2C28.0643 36 30.8114 34.8621 32.8368 32.8368C34.8621 30.8114 36 28.0643 36 25.2V10.8C36 7.93566 34.8621 5.18864 32.8368 3.16325C30.8114 1.13785 28.0643 0 25.2 0L10.8 0ZM9.6 18C9.6 15.7722 10.485 13.6356 12.0603 12.0603C13.6356 10.485 15.7722 9.6 18 9.6C20.2278 9.6 22.3644 10.485 23.9397 12.0603C25.515 13.6356 26.4 15.7722 26.4 18C26.4 20.2278 25.515 22.3644 23.9397 23.9397C22.3644 25.515 20.2278 26.4 18 26.4C15.7722 26.4 13.6356 25.515 12.0603 23.9397C10.485 22.3644 9.6 20.2278 9.6 18ZM26.4 9.6H28.8V7.2H26.4V9.6Z" fill="#FFF9F9"/>
</svg>
