<svg width="48" height="48" viewBox="0 0 48 48" fill="none" xmlns="http://www.w3.org/2000/svg">
<path d="M4 12C4 11.4696 4.21071 10.9609 4.58579 10.5858C4.96086 10.2107 5.46957 10 6 10H42C42.5304 10 43.0391 10.2107 43.4142 10.5858C43.7893 10.9609 44 11.4696 44 12C44 12.5304 43.7893 13.0391 43.4142 13.4142C43.0391 13.7893 42.5304 14 42 14H6C5.46957 14 4.96086 13.7893 4.58579 13.4142C4.21071 13.0391 4 12.5304 4 12V12Z" fill="white"/>
<path d="M4 24.064C4 23.5336 4.21071 23.0249 4.58579 22.6498C4.96086 22.2747 5.46957 22.064 6 22.064H42C42.5304 22.064 43.0391 22.2747 43.4142 22.6498C43.7893 23.0249 44 23.5336 44 24.064C44 24.5945 43.7893 25.1032 43.4142 25.4782C43.0391 25.8533 42.5304 26.064 42 26.064H6C5.46957 26.064 4.96086 25.8533 4.58579 25.4782C4.21071 25.1032 4 24.5945 4 24.064V24.064Z" fill="white"/>
<path d="M6 34.128C5.46957 34.128 4.96086 34.3387 4.58579 34.7138C4.21071 35.0889 4 35.5976 4 36.128C4 36.6584 4.21071 37.1671 4.58579 37.5422C4.96086 37.9173 5.46957 38.128 6 38.128H42C42.5304 38.128 43.0391 37.9173 43.4142 37.5422C43.7893 37.1671 44 36.6584 44 36.128C44 35.5976 43.7893 35.0889 43.4142 34.7138C43.0391 34.3387 42.5304 34.128 42 34.128H6Z" fill="white"/>
</svg>
